<svg xmlns="http://www.w3.org/2000/svg" width="512" height="512" viewBox="0 0 512 512" fill="none"><g clip-path="url(#clip0_129_7)"><path d="M233.323 0.599994C190.892 4.59999 166.602 11 133.544 27C74.3813 55.6 28.7246 105 4.43484 166.5C-0.402957 178.8 -0.503745 180.6 3.32618 184.7C5.14035 186.7 6.3498 187 13.3041 187C20.46 187 21.2663 187.2 20.7624 188.7C18.5451 195.9 14.8159 211.4 13.0018 221C10.8852 231.8 10.7844 236.2 10.3813 292.9C10.1797 326.1 10.1797 354.4 10.4821 355.6C11.5907 359.9 15.723 361 31.0427 361H45.0522L45.5561 374.2C46.06 389.3 47.4711 393.8 54.0222 400.9C57.1466 404.5 63.8994 409 66.0159 409C66.3183 409 66.5199 383.6 66.5199 352.5C66.5199 305.7 66.3183 296 65.2096 296C63.1939 296 56.3403 301.1 53.0144 305.1C47.3703 311.6 46.06 316.3 45.5561 330.8L45.0522 344H35.6789H26.2049V302.7C26.3057 242.8 27.8175 225.8 35.4774 199L38.8033 187.5L50.3939 187C56.7435 186.7 62.5892 186.1 63.2947 185.6C64.101 185.2 66.2175 181.5 68.0317 177.4C76.901 158.1 92.2207 136.5 108.347 120.5C136.668 92.4 171.339 74.2 212.46 65.9C227.477 62.9 271.824 62 289.26 64.4C356.384 73.7 412.825 114.2 442.457 174.6C445.279 180.3 448.403 185.4 449.512 186C450.52 186.5 456.164 187 461.909 187H472.492L473.499 189.7C477.329 199.8 481.058 215.4 483.175 230.8C484.485 239.8 484.788 252.2 484.788 293V344H475.818H466.948L466.343 331.2C465.739 316.3 464.227 311.1 458.381 304.5C454.955 300.7 448.202 296 445.984 296C445.682 296 445.48 321.4 445.48 352.5C445.48 383.6 445.682 409 445.984 409C448.202 409 454.955 404.3 458.381 400.5C464.227 393.9 465.739 388.7 466.343 373.7L466.948 361H480.958C496.277 361 500.41 359.9 501.518 355.7C501.821 354.4 501.921 326.6 501.619 293.9C501.317 243.4 501.014 232.9 499.503 224.1C498.092 215.4 494.06 198.6 491.238 189.2C490.633 187 490.734 187 498.595 187C505.852 187 506.86 186.8 508.977 184.5C512.806 180.5 512 176.7 503.736 159.8C487.912 127.4 471.685 104.4 447.496 79.6C405.871 37 353.764 10.4 296.315 2.39999C286.337 0.999994 242.293 -0.300006 233.323 0.599994Z" fill="#99a1af"></path><path d="M180.41 140.9C176.479 144.7 176.479 148.3 180.309 152.1L183.232 155H204.498H225.764V168.5V182H205.103C183.232 182 180.41 182.5 178.495 186.7C177.789 188.2 177.386 197.6 177.386 213C177.386 236.8 177.386 236.9 179.805 239.7L182.224 242.5L206.816 242.8C233.525 243.1 237.052 242.8 239.975 239.9C242.999 236.9 242.596 230.7 239.27 228.1C236.75 226.1 235.339 226 215.585 226H194.52V212.6V199.1L216.29 198.8C237.758 198.5 238.06 198.5 239.975 196.1C241.789 194 241.89 191.9 241.89 168.5C241.89 145.1 241.789 143 239.975 140.9L238.06 138.5L210.747 138.2L183.333 137.9L180.41 140.9Z" fill="#99a1af"></path><path d="M274.646 139C269.707 140.9 269.606 141.6 269.606 170.1V196.8L272.025 199.4L274.444 202H296.013H317.48V219.4C317.48 236.4 317.581 237 319.899 239.6C322.923 243.2 328.567 243.5 331.893 240.2L334.11 237.9L334.413 190.9L334.715 143.9L331.691 141C327.862 137.1 324.233 137.1 320.403 140.9L317.48 143.8V164.9V186.1L302.161 185.8L286.74 185.5L286.236 163.5C285.833 151.4 285.531 141.4 285.43 141.3C285.329 141.2 283.918 140.4 282.205 139.5C278.98 137.8 277.669 137.7 274.646 139Z" fill="#99a1af"></path><path d="M93.7326 264.7C90.0035 266.1 86.2743 269.6 84.561 273.4C82.7468 277.3 82.646 281.5 82.646 352.5C82.646 423.5 82.7468 427.7 84.561 431.6C85.5688 433.9 87.9877 436.8 89.8019 438.1C93.2287 440.5 93.2287 440.5 125.279 440.8L157.43 441.1L161.764 438.6C170.331 433.6 169.827 438.7 169.827 352V275.5L167.408 271.7C166.199 269.6 163.377 267.1 161.159 266C157.531 264.1 155.213 264 126.287 264.1C109.254 264.1 94.5389 264.4 93.7326 264.7Z" fill="#99a1af"></path><path d="M350.841 265.7C349.027 266.6 346.306 269.1 344.794 271.4L342.173 275.4V352.4V429.5L344.592 433.3C348.422 439.4 352.756 441 365.859 441H376.945V447.7C376.844 461.5 372.712 471.4 362.936 481C355.78 488 348.523 492.1 339.855 493.9C336.429 494.6 319.093 495 290.671 495H246.829L244.41 497.5C241.285 500.5 241.084 505.8 243.805 509.1L245.72 511.5H292.485C344.592 511.5 344.693 511.5 358.803 504.7C373.821 497.5 386.117 483 391.257 466.7C392.265 463.3 393.474 456.1 393.777 450.8L394.381 441.2L406.577 440.8C417.562 440.5 419.074 440.3 422.199 438.1C424.013 436.8 426.432 433.9 427.44 431.6C429.254 427.7 429.355 423.5 429.355 352.5C429.355 281.5 429.254 277.3 427.44 273.4C426.432 271.1 424.013 268.2 422.199 266.9C418.772 264.5 418.772 264.5 386.52 264.3C358.098 264 353.865 264.2 350.841 265.7Z" fill="#99a1af"></path></g><defs><clipPath id="clip0_129_7"><rect width="512" height="512" fill="white"></rect></clipPath></defs></svg>